<svg fill="none" height="203" width="375" xmlns="http://www.w3.org/2000/svg"><clipPath id="a"><path d="M0 0h375v202.9H0z"/></clipPath><g clip-path="url(#a)"><path d="m279.1 185.5-19.8 17.4H251l24.5-21.5zm-5.2-6-26.5 23.4h-8.3l31.2-27.5zm-5.2-5.9-33.3 29.3h-8.3l38-33.4zm-5.2-5.9-40 35.2h-8.3l44.7-39.3zm-5.3-5.9-46.7 41.1h-8.3l51.4-45.2zm-5.2-6-53.5 47.1h-8.2l58.1-51.2zm-5.2-5.9-60.2 53h-8.3l64.5-56.7 3.4 3zm-5.9-5.3-66.3 58.3h-8.2l70.3-61.9zm-6.1-5.2-72.1 63.5h-8.3l76.2-67zm-72.6-62.2L20.3 202.9H12L159 73.6zm6 5.2-137 120.5H24L165 78.8zm60.6 51.9-78 68.6h-8.3l82.1-72.2zm-6.1-5.2-83.9 73.8h-8.3l88-77.4zm-12.1-10.4-95.7 84.2h-8.3l99.8-87.8zm-6-5.2-101.7 89.4h-8.2l105.7-93zm12.1 10.4-89.9 79h-8.2l93.9-82.6zm-18.2-15.6L92 202.9h-8.3l111.6-98.1zm-6.1-5.1L80 202.9h-8.2L189.3 99.6zm-6-5.2L68.1 202.9h-8.3L183.2 94.4zm-6.1-5.2L56.1 202.9h-8.2L177.1 89.2zm-6-5.2L44.2 202.9h-8.3L171.1 84z" fill="#ffe3ac"/><path d="M375 102.3v100.5H222.4c.4-10.3 2.1-20.2 5.1-29.5.7-2.3 1.5-4.6 2.4-6.9.1-.3.3-.7.4-1.1 1.8-4.4 3.8-8.6 6.1-12.7.5-.9 1.1-1.9 1.6-2.8 1.2-2 2.4-3.9 3.7-5.8 1.2-1.7 2.3-3.4 3.6-5 2.2-3 4.7-5.8 7.2-8.6 4.4-4.7 9.2-9 14.3-12.9s10.6-7.4 16.4-10.3l4.2-2.1c.1 0 .1-.1.2-.1 1.9-.9 3.8-1.7 5.7-2.5 12.8-5.1 26.7-7.8 41.3-7.8 3.2 0 6.4.1 9.6.4h.1c10.7 1.1 21 3.5 30.7 7.2z" fill="#ff6937"/><path d="M375 91.5v111.3H231.5c0-1.1-.1-2.3-.1-3.4 0-11.8 1.8-23.1 5.2-33.8.7-2.3 1.6-4.6 2.4-6.9.1-.4.3-.7.4-1 1.8-4.4 3.8-8.6 6.1-12.7.5-.9 1-1.9 1.6-2.8 1.1-2 2.4-3.9 3.6-5.8 1.2-1.7 2.4-3.4 3.6-5 2.2-3 4.7-5.8 7.2-8.6 1.7-1.8 3.4-3.5 5.2-5.2 7.6-7.1 16.2-13.2 25.5-18 1.4-.7 2.8-1.4 4.2-2 .1 0 .1-.1.2-.1 1.9-.9 3.8-1.7 5.8-2.5 12.8-5 26.7-7.8 41.3-7.8 10.9-.1 21.4 1.5 31.3 4.3z" fill="#eef3fe"/><path d="M375 100v102.8H239.6v-3.4c0-10.4 1.5-20.5 4.4-30 .5-1.7 1.1-3.4 1.6-5 .5-1.3.9-2.5 1.4-3.8 3.4-8.4 7.8-16.3 13.1-23.4 1.6-2.1 3.2-4.1 4.9-6.1 8-9.2 17.6-17 28.4-23 2.1-1.2 4.3-2.3 6.5-3.3.4-.2.9-.4 1.3-.6 13-5.8 27.4-9 42.5-9h.5c10.8.1 21.1 1.8 30.8 4.8z" fill="#a0bff9"/><path d="M375 104.9v98H244.3c-.1-1.1-.1-2.3-.1-3.4 0-13.4 2.6-26.1 7.4-37.7 3.7-9.1 8.8-17.6 14.9-25.1 2.7-3.3 5.5-6.4 8.6-9.3 4.6-4.4 9.7-8.4 15.1-11.9 2.9-1.9 5.9-3.6 9-5.1.7-.3 1.3-.6 2-1 12.9-6.1 27.3-9.5 42.5-9.5 11 0 21.5 1.8 31.3 5z" fill="#d4e2fc"/><path d="M375 121.3v81.6H259.8c-.1-1.1-.1-2.2-.1-3.3 0-13.9 3.3-26.9 9.3-38.4 7.4-14.3 18.7-26.3 32.6-34.4a84.16 84.16 0 0 1 42.3-11.4c11 0 21.5 2.1 31.1 5.9z" fill="#fff"/><path d="m337.3 63.3-3 2.2-2.2-3 3-2.2z" fill="#06c167"/><path d="m183.2 125.7 4.4 6.1-2.9 2.1-4.4-6.1z" fill="#156a41"/><path d="m180.8 127.5 4.4 6.1-2.9 2.1-4.4-6.1z" fill="#06c167"/><path d="m321.1 79.9-10.2-1.6.6-3.5 10.2 1.6z" fill="#156a41"/><path d="m321.5 76.9-10.2-1.6.6-3.5 10.2 1.6z" fill="#06c167"/><path d="m299.8 49.8.2-.6c.2-.8 1.2-1.3 1.9-.9l.6.3.6-.2c.8-.2 1.7.4 1.7 1.2v.7l.5.5c.6.6.5 1.6-.2 2.1l-.6.4-.2.6c-.2.8-1.2 1.3-1.9.9l-.6-.3-.6.2c-.8.2-1.7-.4-1.7-1.2v-.7l-.5-.5c-.6-.6-.5-1.6.2-2.1z" fill="#fff"/><path d="m202.7 138.9.2-.9c.3-1.2 1.7-1.8 2.8-1.2l.8.4.9-.2c1.2-.3 2.4.5 2.5 1.8l.1.9.6.7c.9.9.7 2.3-.3 3l-.8.5-.2.9c-.3 1.2-1.7 1.8-2.8 1.2l-.8-.4-.9.2c-1.2.3-2.4-.5-2.5-1.8l-.1-.9-.6-.7c-.9-.9-.7-2.3.3-3z" fill="#fa9269"/><path d="m319.5 139.2 2.7 4.4c.3.6 2.6 1 5 1s4.1-.5 3.7-1.1l-2.7-4.4z" fill="#156a41"/><path d="M323.8 140.2c-2.4 0-4.4-.5-4.4-1.1s2-1 4.4-1 4.4.5 4.4 1.1-2 1-4.4 1zm-27.7 27.4-7.8-4.4.7 8.2 7.8 4.4z" fill="#05a357"/><path d="m294.1 164.8-3.8 3.1 10.5 3 3.8-3.1z" fill="#156a41"/><path d="m99.3 195.1 13.4-13.4c-4.4-4.4-4.7-11.5 0-16.2 4.2-4.2 11.8-4.5 16.2 0l13.4-13.4-59-59-13.4 13.4c4.4 4.4 4.7 11.5 0 16.2s-11.8 4.5-16.2 0l-13.4 13.4zm110.8 7.8H150c.5-10.8 6.7-20.1 15.6-25 4.3-2.3 9.2-3.7 14.4-3.7 16.2 0 29.3 12.7 30.1 28.7z" fill="#ff6937"/><path d="M214.5 201.4v1.5h-60.1v-1.5c0-9.5 4.4-18 11.3-23.5 5.1-4.1 11.7-6.6 18.8-6.6 16.5 0 30 13.5 30 30.1z" fill="#fff"/><path d="M209 201.4c0 .5 0 1-.1 1.5h-49.2v-1.5c0-13.6 11-24.6 24.6-24.6 13.7 0 24.7 11 24.7 24.6z" fill="#d4e2fc"/><path d="M204.5 201.4c0 .5 0 1-.1 1.4h-40.1c0-.5-.1-1-.1-1.4 0-11.1 9-20.1 20.1-20.1 11.2 0 20.2 9 20.2 20.1z" fill="#870f00"/><path d="M200.4 202.9h-32.8c-.7-7.5 3.8-14.8 11.3-17.4 8.8-3.1 18.4 1.6 21.5 10.4.3.8.5 1.6.6 2.4.3 1.5.1 3.1-.6 4.6z" fill="#000"/><path d="M80.5 0H65.8l190 161.1c1.1 1 2.8.8 3.8-.3s.8-2.8-.3-3.8z" fill="#ff6937"/><path d="m306.8 109.8-.8-.7-5.1-4.4-20.6-18.1-4.8-4.2L181.9 0h-13.2l98.7 83.5 3.7 3.2 14.3 12.1c-5.1-3.9-11.5-6.2-18.4-6.2-16.8 0-30.5 13.7-30.5 30.5s13.7 30.5 30.5 30.5 30.5-13.7 30.5-30.5c0-8.7-3.7-16.5-9.5-22.1l13.9 11.7 1.4 1.2c.8.7 2 .8 2.9.3.3-.2.6-.4.8-.7 1-1 .9-2.7-.2-3.7z" fill="#ff6937"/><path d="m112.2 122.1-45.7 40.2-3.9-3.9 45.7-40.2zm5.6 5.6-45.7 40.2-3.9-3.9 45.7-40.2zm-7.1 51.5c.5.9 1.2 1.8 2 2.6l-13.3 13.3-3.2-3.2zm31.6-27-13.4 13.4c-.4-.4-.9-.8-1.4-1.2l14.3-12.6zm-32 16.8c-1.2 2.5-1.3 5.2-.6 7.8l-15.3 13.4-3.9-3.9zm29.8-18.9-14.9 13.1c-2.5-1-5.4-1.1-7.9-.3l19-16.7zm-5.6-5.6-45.7 40.1-3.8-3.8 45.6-40.2zm-5.6-5.6-45.7 40.2-3.8-3.9 45.7-40.2zm-5.6-5.6-45.7 40.2-3.8-3.9 45.7-40.2z" fill="#fa9269"/><path d="m100.2 189.8 13.4-13.4c-4.4-4.4-4.7-11.5 0-16.2 4.2-4.2 11.8-4.5 16.2 0l13.4-13.4-59-59-13.4 13.4c4.4 4.4 4.7 11.5 0 16.2s-11.8 4.5-16.2 0l-13.4 13.4z" fill="#05a357"/><path d="M259.6 160.8c-1 1.2-2.7 1.3-3.8.3l-13-11c.9-1.8 1.8-3.5 2.7-5.2l13.8 12.1c1.1 1 1.3 2.7.3 3.8z" fill="#a0bff9"/><path d="M288.6 101.6c5.5 5.5 8.9 13.1 8.9 21.5 0 16.8-13.7 30.5-30.5 30.5-8.3 0-15.8-3.3-21.3-8.7.5-.9 1-1.8 1.6-2.7 1.1-2 2.4-3.9 3.6-5.8 1.2-1.7 2.4-3.4 3.6-5 2.2-3 4.7-5.8 7.2-8.6 1.7-1.8 3.4-3.5 5.2-5.2 6.5-6.2 13.8-11.5 21.7-16zm18.5 12c-.2.3-.5.5-.8.7-.9.5-2.1.4-2.9-.3l-1.4-1.2-13.2-11.1c1.2-.7 2.4-1.4 3.7-2l1.8-.9 6.8 6 5.1 4.4.8.7c.9.9 1 2.6.1 3.7z" fill="#a0bff9"/><path d="M259.6 160.8c-1 1.2-2.7 1.3-3.8.3l-13-11c.9-1.8 1.8-3.5 2.7-5.2l13.8 12.1c1.1 1 1.3 2.7.3 3.8z" fill="#a0bff9"/><path d="M297.5 123.1c0 16.8-13.7 30.5-30.5 30.5-8.3 0-15.8-3.3-21.3-8.7.5-.9 1-1.8 1.6-2.7 1.1-2 2.4-3.9 3.6-5.8 1.2-1.7 2.4-3.4 3.6-5 2.2-3 4.7-5.8 7.2-8.6 1.7-1.8 3.4-3.5 5.2-5.2 6.6-6.2 13.9-11.6 21.7-16 5.5 5.5 8.9 13.1 8.9 21.5zm9.6-9.5c-.2.3-.5.5-.8.7-.9.5-2.1.4-2.9-.3l-1.4-1.2-13.2-11.1c1.2-.7 2.4-1.4 3.7-2l1.8-.9 6.8 6 5.1 4.4.8.7c.9.9 1 2.6.1 3.7z" fill="#a0bff9"/><path d="M286.1 122.7c-5.6 5.6-14.7 5.6-20.4 0l10.2-10.2z" fill="#ffd7d2"/><path d="M275.8 143.3c-16.8 0-30.5-13.7-30.5-30.5s13.7-30.5 30.5-30.5 30.5 13.7 30.5 30.5-13.7 30.5-30.5 30.5z" fill="#156a41"/><path d="M271.4 139.1c-1.2-.2-2.4-.6-3.5-1.3-.9-.5-1.8-.9-2.8-1.1-2.5-.5-4.7-1.8-6.2-3.8-.6-.8-1.3-1.5-2.2-2.1-2.1-1.4-3.6-3.5-4.2-5.9-.3-1-.7-1.9-1.2-2.8-1.4-2.1-2-4.6-1.6-7.1.2-1 .1-2-.1-3-.5-2.5-.1-5 1.2-7.1.5-.9.9-1.8 1.1-2.8.5-2.5 1.8-4.7 3.8-6.2.8-.6 1.5-1.3 2.1-2.2 1.4-2.1 3.5-3.6 5.9-4.2 1-.2 1.9-.7 2.8-1.2 2.1-1.4 4.5-2 7-1.6h.1c1 .2 2 .1 3-.1 1.2-.3 2.5-.3 3.7-.1s2.4.6 3.5 1.3c.9.5 1.8.9 2.8 1.1 2.5.5 4.7 1.8 6.2 3.8.6.8 1.3 1.5 2.2 2.1 2.1 1.4 3.6 3.5 4.2 5.9.2 1 .7 1.9 1.2 2.8 1.4 2.1 2 4.6 1.6 7.1-.2 1-.1 2 .1 3 .5 2.5.1 5-1.2 7.1-.5.9-.9 1.8-1.1 2.8-.5 2.5-1.8 4.7-3.8 6.2-.8.6-1.5 1.3-2.1 2.2-1.4 2.1-3.5 3.6-5.9 4.2-1 .3-1.9.7-2.8 1.2-2.1 1.4-4.6 2-7.1 1.6-1-.2-2-.1-3 .1-1.3.3-2.5.3-3.7.1z" fill="#fff"/><path d="M290.8 115.3c1.4-8.3-4.2-16.1-12.5-17.5-4.1-.7-8.2.4-11.3 2.6l17.6 24.7c3.2-2.2 5.5-5.6 6.2-9.8z" fill="#fa9269"/><path d="M273.3 127.8c4.1.7 8.2-.4 11.3-2.6l-8.8-12.4-12.4 8.8c2.3 3.2 5.7 5.5 9.9 6.2z" fill="#ffc043"/><path d="M260.8 110.3c-.7 4.1.4 8.2 2.6 11.3l12.4-8.8-8.8-12.4c-3.2 2.3-5.5 5.8-6.2 9.9z" fill="#156a41"/><path d="m86.4 0 178.3 150.9c1.1 1 2.8.8 3.8-.3s.8-2.8-.3-3.8L101.1 0zm229.5 103.3c-.9 1.2-2.7 1.3-3.8.3l-15.4-13.1-2.5-2.1L189.6 0h12.7l113.3 99.6c1.1.9 1.2 2.6.3 3.7z" fill="#fff"/></g></svg>